<svg width="274" height="296" viewBox="0 0 274 296" fill="none" xmlns="http://www.w3.org/2000/svg">
<g clip-path="url(#clip0_495_7463)">
<path d="M165.193 242.812C166.048 242.812 166.907 242.842 167.761 242.842V242.882C180.18 242.885 192.1 238.019 200.943 229.338C209.785 220.658 214.839 208.86 215.01 196.498C215.181 184.136 210.457 172.203 201.858 163.283C193.259 154.363 181.478 149.172 169.065 148.833C156.651 148.495 144.602 153.036 135.526 161.474C126.449 169.912 121.075 181.569 120.566 193.922C120.057 206.275 124.455 218.33 132.806 227.48C141.158 236.63 152.793 242.138 165.193 242.812Z" fill="black"/>
<path d="M274 78.2605L272.779 67.1076C270.844 49.5351 263.134 34.4294 249.87 22.2608C233.204 7.00494 213.603 -0.300239 189.921 -2.59029e-05C162.849 0.312163 136.244 7.06276 112.325 19.6889L109.4 21.25L108.239 21.8705C99.2425 26.6889 92.1258 30.5216 82.1744 34.4944C73.9821 37.7918 65.2319 39.2378 53.8481 39.1778C40.9465 39.1027 28.0649 37.7117 17.1586 36.3658C11.7909 35.7053 6.03115 34.9047 0.0703634 33.9841H0V296H268.386V197.14C268.386 196.714 268.386 196.279 268.386 195.849C268.386 140.63 223.258 95.6978 167.786 95.6978C119.256 95.6978 78.3245 129.397 69.0968 176.36C69.137 176.445 69.1823 176.53 69.2175 176.61L69.1119 177.196C66.5139 191.264 66.9818 205.723 70.484 219.596C55.4061 200.402 45.5854 177.311 42.6452 153.384C39.7352 130.202 43.2031 99.3454 52.6419 78.2605H274ZM103.701 174.018C109.058 158.081 120.245 144.734 135.037 136.635C149.828 128.535 167.141 126.275 183.53 130.304C199.919 134.334 214.184 144.358 223.488 158.382C232.791 172.406 236.451 189.402 233.739 205.991C231.027 222.579 222.143 237.543 208.853 247.906C195.563 258.27 178.841 263.273 162.014 261.921C145.187 260.569 129.488 252.961 118.04 240.61C106.591 228.259 100.232 212.07 100.228 195.263C100.222 188.041 101.395 180.866 103.701 174.018Z" fill="black"/>
</g>
<defs>
<clipPath id="clip0_495_7463">
<rect width="274" height="296" fill="white"/>
</clipPath>
</defs>
</svg>
